<?xml version="1.0" standalone="no"?><!DOCTYPE svg PUBLIC "-//W3C//DTD SVG 1.1//EN" "http://www.w3.org/Graphics/SVG/1.1/DTD/svg11.dtd"><svg t="1641887552639" class="icon" viewBox="0 0 1024 1024" version="1.1" xmlns="http://www.w3.org/2000/svg" p-id="3291" xmlns:xlink="http://www.w3.org/1999/xlink" width="200" height="200"><defs><style type="text/css"></style></defs><path d="M513 98.23c-229.19 0-415 185.8-415 415s185.8 415 415 415 415-185.8 415-415-185.81-415-415-415z m0 754.53c-187.52 0-339.54-152.02-339.54-339.54S325.48 173.68 513 173.68 852.54 325.7 852.54 513.22 700.52 852.76 513 852.76z" fill="#1afa29" p-id="3292"></path><path d="M382.14 435.81c-9.16-8.01-19.35-13.48-30.59-16.39-11.24-2.92-24.71-4.37-40.42-4.37h-60.4c-9.99 0-17.22 2.24-21.7 6.71-4.47 4.48-6.71 11.71-6.71 21.7v167.78c0 7.39 0.65 13.39 1.95 18.03 1.3 4.62 4.08 8.22 8.35 10.77 4.26 2.55 10.61 3.82 19.04 3.82h60.4c10.51 0 19.95-0.67 28.33-2.03 8.37-1.35 16.21-3.69 23.49-7.03 7.28-3.32 14-7.75 20.13-13.26 7.8-7.18 14.2-15.32 19.2-24.43 5-9.1 8.69-19.32 11.08-30.66 2.39-11.35 3.59-23.88 3.59-37.62 0-41.62-11.91-72.63-35.74-93.02z m-34.49 160.44c-3.44 3.02-7.49 5.36-12.18 7.02-4.68 1.67-9.21 2.71-13.58 3.12-4.37 0.42-10.4 0.63-18.1 0.63h-35.12V451.73h30.59c14.15 0 26.22 1.53 36.21 4.6 9.99 3.07 18.39 10.22 25.21 21.46 6.81 11.24 10.22 28.15 10.22 50.72 0 32.05-7.75 54.63-23.25 67.74zM597.23 411.15c-6.45 0-11.57 2.21-15.37 6.63-3.79 4.42-5.69 11.06-5.69 19.9v136.09l-89.11-134.84c-2.5-3.96-4.92-7.75-7.26-11.39-2.34-3.64-4.63-6.61-6.87-8.9a25.941 25.941 0 0 0-7.8-5.46c-2.97-1.35-6.53-2.03-10.69-2.03-5.31 0-10.25 1.48-14.82 4.44-4.58 2.97-7.86 6.79-9.83 11.47-1.67 4.27-2.5 10.15-2.5 17.64v176.51c0 8.64 1.98 15.22 5.93 19.75 3.95 4.52 9.21 6.79 15.76 6.79 6.35 0 11.55-2.24 15.61-6.71 4.06-4.48 6.09-11.08 6.09-19.82V487.16l86.93 133.28c2.5 3.65 4.99 7.21 7.49 10.69 2.5 3.49 5.2 6.53 8.11 9.13 2.91 2.61 6.03 4.5 9.37 5.7 3.33 1.19 7.07 1.8 11.24 1.8 16.64 0 24.97-10.04 24.97-30.13V437.68c0-8.84-1.92-15.48-5.78-19.9-3.86-4.42-9.12-6.63-15.78-6.63zM805.23 545.91c-4.11-7.96-9.84-14.53-17.17-19.74-7.33-5.2-16.23-9.63-26.68-13.27-10.46-3.64-22.14-6.97-35.04-9.99-10.31-2.6-17.69-4.58-22.17-5.93-4.47-1.35-8.89-3.23-13.26-5.62-4.37-2.39-7.8-5.25-10.3-8.58-2.5-3.33-3.75-7.29-3.75-11.86 0-7.39 3.67-13.71 11.01-18.96 7.33-5.25 16.98-7.88 28.95-7.88 12.89 0 22.26 2.42 28.09 7.26 5.82 4.84 10.82 11.58 14.99 20.21 3.22 6.03 6.21 10.38 8.97 13.03 2.75 2.65 6.79 3.98 12.09 3.98 5.83 0 10.69-2.21 14.59-6.64 3.91-4.42 5.86-9.39 5.86-14.9 0-6.03-1.57-12.23-4.69-18.57-3.11-6.35-8.06-12.41-14.82-18.18-6.77-5.78-15.27-10.4-25.52-13.89-10.24-3.49-22.39-5.23-36.44-5.23-17.58 0-32.88 2.63-45.89 7.88-13.01 5.25-22.94 12.78-29.81 22.55-6.87 9.78-10.31 20.97-10.31 33.55 0 13.22 3.25 24.27 9.75 33.16 6.5 8.9 15.3 15.92 26.38 21.07s24.84 9.65 41.28 13.5c12.28 2.81 22.08 5.46 29.42 7.96 7.33 2.5 13.32 6.12 17.94 10.85 4.63 4.73 6.95 10.9 6.95 18.49 0 9.57-4.29 17.56-12.88 23.96-8.58 6.39-19.75 9.6-33.48 9.6-9.98 0-18.05-1.58-24.19-4.76-6.14-3.18-10.91-7.2-14.29-12.09-3.38-4.89-6.53-10.98-9.44-18.26-2.39-6.13-5.28-10.77-8.66-13.89-3.39-3.12-7.53-4.68-12.41-4.68-6.04 0-11.01 2-14.91 6.01-3.9 4.01-5.85 8.82-5.85 14.44 0 9.67 3.25 19.64 9.75 29.88 6.5 10.25 14.96 18.45 25.36 24.58 14.67 8.54 33.3 12.8 55.88 12.8 18.83 0 35.11-3.12 48.84-9.37 13.73-6.24 24.17-14.88 31.3-25.91 7.12-11.03 10.68-23.46 10.68-37.3 0.04-11.54-2.02-21.29-6.12-29.26z" fill="#1afa29" p-id="3293"></path></svg>