<?xml version="1.0" standalone="no"?><!DOCTYPE svg PUBLIC "-//W3C//DTD SVG 1.1//EN" "http://www.w3.org/Graphics/SVG/1.1/DTD/svg11.dtd"><svg t="1644833169349" class="icon" viewBox="0 0 1024 1024" version="1.1" xmlns="http://www.w3.org/2000/svg" p-id="1830" width="200" height="200" xmlns:xlink="http://www.w3.org/1999/xlink"><defs><style type="text/css"></style></defs><path d="M857.6 814.933333c-2.133333 6.4-2.133333 10.666667-4.266667 14.933334l-38.4-149.333334h-40.533333l-34.133333 132.266667-2.133334 12.8-4.266666-12.8-34.133334-132.266667h-42.666666l61.866666 217.6h40.533334l36.266666-145.066666c2.133333 6.4 2.133333 10.666667 4.266667 17.066666l29.866667 125.866667h42.666666l59.733334-215.466667s-40.533333 0-42.666667 2.133334l-32 132.266666zM512 64C264.533333 64 64 264.533333 64 512s200.533333 448 448 448c57.6 0 113.066667-10.666667 164.266667-32l-12.8-42.666667c-6.4 4.266667-12.8 6.4-17.066667 8.533334h-2.133333c4.266667-4.266667 8.533333-6.4 14.933333-10.666667l-6.4-21.333333-27.733333 19.2c-32 21.333333-68.266667 34.133333-106.666667 36.266666v-153.6h102.4l-2.133333-4.266666-6.4-19.2h-93.866667v-204.8h262.4c-2.133333 36.266667-6.4 68.266667-12.8 102.4h21.333333c6.4-34.133333 10.666667-68.266667 12.8-104.533334h113.066667c-2.133333 36.266667-8.533333 70.4-19.2 104.533334h44.8c10.666667-40.533333 19.2-81.066667 19.2-125.866667 0-247.466667-200.533333-448-448-448z m-134.4 68.266667c-44.8 32-85.333333 78.933333-115.2 136.533333H189.866667c46.933333-64 113.066667-110.933333 187.733333-136.533333z m-204.8 155.733333h87.466667c-29.866667 66.133333-44.8 142.933333-44.8 226.133333H104.533333c0-83.2 25.6-160 68.266667-226.133333zM104.533333 535.466667H213.333333c2.133333 74.666667 17.066667 145.066667 42.666667 204.8H170.666667c-36.266667-61.866667-61.866667-130.133333-66.133334-204.8zM375.466667 896c-74.666667-27.733333-138.666667-74.666667-185.6-134.4h74.666666c21.333333 40.533333 46.933333 76.8 76.8 104.533333 2.133333 2.133333 2.133333 2.133333 6.4 4.266667 10.666667 10.666667 21.333333 19.2 34.133334 25.6-4.266667 2.133333-4.266667 0-6.4 0z m123.733333 23.466667c-46.933333-2.133333-91.733333-21.333333-130.133333-53.333334l-2.133334-2.133333c-29.866667-25.6-57.6-59.733333-78.933333-100.266667h211.2v155.733334z m0-179.2H281.6c-25.6-59.733333-42.666667-130.133333-44.8-204.8h262.4v204.8z m0-226.133334H234.666667c0-83.2 17.066667-162.133333 46.933333-226.133333h217.6v226.133333z m0-247.466666h-206.933333c49.066667-91.733333 123.733333-151.466667 206.933333-155.733334v155.733334z m330.666667 0h-74.666667C725.333333 209.066667 686.933333 162.133333 640 130.133333c76.8 27.733333 142.933333 74.666667 189.866667 136.533334zM520.533333 110.933333c83.2 4.266667 155.733333 64 204.8 155.733334h-204.8V110.933333z m0 403.2V288h215.466667c29.866667 64 46.933333 142.933333 46.933333 226.133333H520.533333z m283.733334 0c0-83.2-17.066667-160-44.8-226.133333h87.466666c42.666667 64 68.266667 142.933333 68.266667 226.133333h-110.933333z" p-id="1831" fill="#d81e06"></path></svg>